<svg xmlns="http://www.w3.org/2000/svg" width="90" height="90" viewBox="0 0 90 90"><path d="M71.25,0H18.75A18.752,18.752,0,0,0,0,18.75v52.5A18.752,18.752,0,0,0,18.75,90h52.5A18.75,18.75,0,0,0,90,71.25V18.75A18.75,18.75,0,0,0,71.25,0ZM54.5,73.463c-1.519.292-2-.641-2-1.44V63.791c0-2.8-.982-4.624-2.062-5.554,6.682-.743,13.7-3.281,13.7-14.8a11.6,11.6,0,0,0-3.086-8.051,10.8,10.8,0,0,0-.3-7.939s-2.516-.806-8.242,3.075a28.379,28.379,0,0,0-15.026-.008c-5.73-3.881-8.25-3.075-8.25-3.075a10.8,10.8,0,0,0-.289,7.942,11.6,11.6,0,0,0-3.09,8.051c0,11.49,7,14.066,13.669,14.827a6.385,6.385,0,0,0-1.905,4.013c-1.714.765-6.053,2.089-8.73-2.5a6.313,6.313,0,0,0-4.6-3.094s-2.925-.037-.206,1.826c0,0,1.969.923,3.334,4.388,0,0,1.736,5.355,10.08,3.54v5.584c0,.791-.484,1.721-1.98,1.444a29.989,29.989,0,1,1,18.982,0Z"/></svg>