<svg xmlns="http://www.w3.org/2000/svg" width="90" height="90" viewBox="0 0 90 90"><path d="M61.875,0H28.125A28.128,28.128,0,0,0,0,28.125v33.75A28.128,28.128,0,0,0,28.125,90h33.75A28.128,28.128,0,0,0,90,61.875V28.125A28.128,28.128,0,0,0,61.875,0ZM81.562,61.875A19.709,19.709,0,0,1,61.875,81.562H28.125A19.709,19.709,0,0,1,8.438,61.875V28.125A19.709,19.709,0,0,1,28.125,8.438h33.75A19.709,19.709,0,0,1,81.562,28.125Z"/><path d="M27.75,5.25a22.5,22.5,0,1,0,22.5,22.5A22.5,22.5,0,0,0,27.75,5.25Zm0,36.562A14.062,14.062,0,1,1,41.812,27.75,14.082,14.082,0,0,1,27.75,41.812Z" transform="translate(17.25 17.25)"/><path d="M18.443,10.153a3,3,0,1,0-3-3A3,3,0,0,0,18.443,10.153Z" transform="translate(50.746 13.658)"/></svg>